<?xml version="1.0" encoding="UTF-8"?>
<svg width="22px" height="22px" viewBox="0 0 22 22" version="1.1" xmlns="http://www.w3.org/2000/svg" xmlns:xlink="http://www.w3.org/1999/xlink">
    <!-- Generator: Sketch 52.6 (67491) - http://www.bohemiancoding.com/sketch -->
    <title>icon_search</title>
    <desc>Created with Sketch.</desc>
    <g id="cut-img" stroke="none" stroke-width="1" fill="none" fill-rule="evenodd">
        <g id="icon_search" transform="translate(-22.000000, -11.000000)">
            <rect id="Frame" x="0" y="0" width="44" height="44"></rect>
            <path d="M44.000098,31.268273 L38.6712927,25.9394677 C41.4616035,22.2986644 41.19362,17.051185 37.8636923,13.7212328 C36.1087923,11.9663328 33.7751068,11 31.2929525,11 C28.8107982,11 26.4770881,11.9664308 24.7222126,13.7212328 C22.9663573,15.4770881 22,17.8107982 22,20.2929525 C22,22.7751068 22.9664308,25.1088168 24.7222126,26.8636923 C26.4771126,28.6185923 28.8107982,29.5859049 31.2929525,29.5859049 C33.361692,29.5859049 35.3271574,28.9122718 36.9404475,27.6721745 L42.268273,33 L44.000098,31.268273 Z M31.292928,27.1365749 C29.4653246,27.1365749 27.7466783,26.4246795 26.4540376,25.1319408 C25.1613234,23.8401819 24.4494035,22.1206783 24.4494035,20.2930504 C24.4494035,18.4654226 25.1612989,16.7468008 26.4540376,15.4541601 C27.7467763,14.1615194 29.4653001,13.449526 31.292928,13.449526 C33.1214867,13.449526 34.8399125,14.1614214 36.1327981,15.4541601 C38.80161,18.122972 38.80161,22.4641087 36.1337552,25.1329206 C34.8400857,26.4246795 33.120533,27.1365994 31.2929052,27.1365994 L31.292928,27.1365749 Z" id="Search" fill="#222222" fill-rule="nonzero"></path>
        </g>
    </g>
</svg>