<?xml version="1.0" encoding="UTF-8"?>
<svg width="13px" height="26px" viewBox="0 0 13 26" version="1.1" xmlns="http://www.w3.org/2000/svg" xmlns:xlink="http://www.w3.org/1999/xlink">
    <!-- Generator: Sketch 52.6 (67491) - http://www.bohemiancoding.com/sketch -->
    <title>icon_aboutus</title>
    <desc>Created with Sketch.</desc>
    <g id="Page-1" stroke="none" stroke-width="1" fill="none" fill-rule="evenodd">
        <g id="mall_24_profile_history" transform="translate(-306.000000, -318.000000)">
            <g id="sidebar" transform="translate(248.000000, 0.000000)">
                <g id="user-copy-2" transform="translate(36.000000, 309.000000)">
                    <g id="user" transform="translate(6.000000, 0.000000)">
                        <g id="icon_aboutus">
                            <rect id="Frame" x="0" y="0" width="44" height="44"></rect>
                            <path d="M24.11864,21 L23,21 C23,17.700865 25.6479109,15 29,15 L29,16.1277409 C26.2864041,16.1277409 24.11864,18.3445987 24.11864,21" id="Fill-1" fill="#FFFFFF"></path>
                            <path d="M18.1065554,21 L17,21 C17,17.8292973 18.2535593,14.7774167 20.5159346,12.5059253 C22.77831,10.2344338 25.7630727,9 29,9 L29,10.1110142 C22.9998421,10.1110142 18.1065554,14.9756649 18.1065554,21" id="Fill-3" fill="#FFFFFF"></path>
                            <path d="M21.1112051,21 L20,21 C20,16.0579233 24.0052854,12 29,12 L29,13.1171485 C24.6395349,13.1171485 21.1112051,16.6956106 21.1112051,21" id="Fill-6" fill="#FFFFFF"></path>
                            <path d="M27.5,22 C26.6715755,22 26,21.328405 26,20.4999564 C26,19.671595 26.6715755,19 27.5,19 C28.3284245,19 29,19.671595 29,20.4999564 C29,21.328405 28.3284245,22 27.5,22" id="Fill-9" fill="#FFFFFF"></path>
                            <path d="M16,29 L16,27.8721786 C18.6468111,27.8721786 20.8758271,25.6554013 20.8758271,23 L22,23 C22,26.299135 19.2884623,29 16,29" id="Fill-11" fill="#FFFFFF"></path>
                            <path d="M16,35 L16,33.8889858 C22.0147599,33.8889858 26.8907516,29.0243351 26.8907516,23 L28,23 C28,26.1707027 26.7580312,29.2225833 24.4901502,31.4940747 C22.2222691,33.7656454 19.1656631,35 16,35" id="Fill-13" fill="#FFFFFF"></path>
                            <path d="M16,32 L16,30.8827718 C20.3747625,30.8827718 23.885231,27.3043894 23.885231,23 L25,23 C25,27.9420767 20.9315504,32 16,32" id="Fill-15" fill="#FFFFFF"></path>
                            <path d="M17.5,23 C18.3284245,23 19,23.671595 19,24.5000436 C19,25.328405 18.3284245,26 17.5,26 C16.6715755,26 16,25.328405 16,24.5000436 C16,23.671595 16.6715755,23 17.5,23" id="Fill-17" fill="#FFFFFF"></path>
                        </g>
                    </g>
                </g>
            </g>
        </g>
    </g>
</svg>