<?xml version="1.0" encoding="UTF-8"?>
<svg width="14px" height="14px" viewBox="0 0 14 14" version="1.1" xmlns="http://www.w3.org/2000/svg" xmlns:xlink="http://www.w3.org/1999/xlink">
    <!-- Generator: Sketch 52.6 (67491) - http://www.bohemiancoding.com/sketch -->
    <title>icon_clock</title>
    <desc>Created with Sketch.</desc>
    <g id="cut-img" stroke="none" stroke-width="1" fill="none" fill-rule="evenodd">
        <g id="icon_clock" fill="#F3470F">
            <path d="M10.634804,8.4 L7.16750057,8.4 C7.15577819,8.4 7.14487365,8.39722727 7.13315127,8.39677589 C7.1217015,8.39722727 7.11079696,8.4 7.09907457,8.4 C6.78652316,8.4 6.53333333,8.1602553 6.53333333,7.864798 L6.53333333,2.40193315 C6.53333333,2.10621792 6.78652316,1.86666667 7.09907457,1.86666667 C7.41135338,1.86666667 7.6645432,2.10621792 7.6645432,2.40193315 L7.6645432,7.32978945 L10.6345314,7.32978945 C10.9468102,7.32978945 11.2,7.56927622 11.2,7.864798 C11.2,8.1602553 10.9470828,8.4 10.634804,8.4 M6.99988333,0 C3.13412724,0 0,3.13412724 0,6.99988333 C0,10.8656978 3.13412724,14 6.99988333,14 C10.8656978,14 14,10.8656978 14,6.99988333 C14,3.13412724 10.8656978,0 6.99988333,0" id="Page-1"></path>
        </g>
    </g>
</svg>