<?xml version="1.0" encoding="UTF-8"?>
<svg width="20px" height="18px" viewBox="0 0 20 18" version="1.1" xmlns="http://www.w3.org/2000/svg" xmlns:xlink="http://www.w3.org/1999/xlink">
    <g id="Symbols" stroke="none" stroke-width="1" fill="none" fill-rule="evenodd">
        <g id="general/icon/icon_setting" transform="translate(-86.000000, -13.000000)" fill="#222222">
            <g id="FilterBTN" transform="translate(86.000000, 13.000000)">
                <path d="M4.58333333,14.7272727 L4.58333333,16.3636364 L0,16.3636364 L0,14.7272727 L4.58333333,14.7272727 Z M9.16666667,13.0909091 C9.39236224,13.0909091 9.58767279,13.1718742 9.75260417,13.3338068 C9.91753555,13.4957394 10,13.6874989 10,13.9090909 L10,17.1818182 C10,17.4034102 9.91753555,17.5951696 9.75260417,17.7571023 C9.58767279,17.9190349 9.39236224,18 9.16666667,18 L5.83333333,18 C5.60763776,18 5.41232721,17.9190349 5.24739583,17.7571023 C5.08246445,17.5951696 5,17.4034102 5,17.1818182 L5,13.9090909 C5,13.6874989 5.08246445,13.4957394 5.24739583,13.3338068 C5.41232721,13.1718742 5.60763776,13.0909091 5.83333333,13.0909091 L9.16666667,13.0909091 Z M11.25,8.18181818 L11.25,9.81818182 L0,9.81818182 L0,8.18181818 L11.25,8.18181818 Z M2.91666667,1.63636364 L2.91666667,3.27272727 L0,3.27272727 L0,1.63636364 L2.91666667,1.63636364 Z M20,14.7272727 L20,16.3636364 L10.4166667,16.3636364 L10.4166667,14.7272727 L20,14.7272727 Z M7.5,0 C7.72569557,0 7.92100612,0.0809650994 8.0859375,0.242897727 C8.25086888,0.404830355 8.33333333,0.596589801 8.33333333,0.818181818 L8.33333333,4.09090909 C8.33333333,4.31250111 8.25086888,4.50426055 8.0859375,4.66619318 C7.92100612,4.82812581 7.72569557,4.90909091 7.5,4.90909091 L4.16666667,4.90909091 C3.94097109,4.90909091 3.74566055,4.82812581 3.58072917,4.66619318 C3.41579779,4.50426055 3.33333333,4.31250111 3.33333333,4.09090909 L3.33333333,0.818181818 C3.33333333,0.596589801 3.41579779,0.404830355 3.58072917,0.242897727 C3.74566055,0.0809650994 3.94097109,0 4.16666667,0 L7.5,0 Z M15.8333333,6.54545455 C16.0590289,6.54545455 16.2543395,6.62641964 16.4192708,6.78835227 C16.5842022,6.9502849 16.6666667,7.14204435 16.6666667,7.36363636 L16.6666667,10.6363636 C16.6666667,10.8579557 16.5842022,11.0497151 16.4192708,11.2116477 C16.2543395,11.3735804 16.0590289,11.4545455 15.8333333,11.4545455 L12.5,11.4545455 C12.2743044,11.4545455 12.0789939,11.3735804 11.9140625,11.2116477 C11.7491311,11.0497151 11.6666667,10.8579557 11.6666667,10.6363636 L11.6666667,7.36363636 C11.6666667,7.14204435 11.7491311,6.9502849 11.9140625,6.78835227 C12.0789939,6.62641964 12.2743044,6.54545455 12.5,6.54545455 L15.8333333,6.54545455 Z M20,8.18181818 L20,9.81818182 L17.0833333,9.81818182 L17.0833333,8.18181818 L20,8.18181818 Z M20,1.63636364 L20,3.27272727 L8.75,3.27272727 L8.75,1.63636364 L20,1.63636364 Z" id=""></path>
            </g>
        </g>
    </g>
</svg>