<?xml version="1.0" encoding="UTF-8"?>
<svg width="26px" height="26px" viewBox="0 0 26 26" version="1.1" xmlns="http://www.w3.org/2000/svg" xmlns:xlink="http://www.w3.org/1999/xlink">
    <!-- Generator: Sketch 52.6 (67491) - http://www.bohemiancoding.com/sketch -->
    <title>icon_tnc</title>
    <desc>Created with Sketch.</desc>
    <g id="Page-1" stroke="none" stroke-width="1" fill="none" fill-rule="evenodd">
        <g id="mall_24_profile_history" transform="translate(-299.000000, -418.000000)">
            <g id="sidebar" transform="translate(248.000000, 0.000000)">
                <g id="user-copy-3" transform="translate(36.000000, 409.000000)">
                    <g id="icon_tnc" transform="translate(6.000000, 0.000000)">
                        <rect id="Frame" x="0" y="0" width="44" height="44"></rect>
                        <path d="M21.8768095,33.7619048 C15.3235714,33.7619048 9.99171429,28.4300476 9.99171429,21.8768095 C9.99171429,15.3235714 15.3235714,9.99171429 21.8768095,9.99171429 C28.4300476,9.99171429 33.7619048,15.3235714 33.7619048,21.8768095 C33.7619048,28.4300476 28.4300476,33.7619048 21.8768095,33.7619048 M21.8768095,9 C14.7769524,9 9,14.7769524 9,21.8768095 C9,28.9766667 14.7769524,34.753619 21.8768095,34.753619 C28.9766667,34.753619 34.753619,28.9766667 34.753619,21.8768095 C34.753619,14.7769524 28.9766667,9 21.8768095,9" id="Fill-1" fill="#F6F6F6"></path>
                        <path d="M21.8768095,27.3250476 C21.6031905,27.3250476 21.3809524,27.5448095 21.3809524,27.8178095 L21.3809524,28.8095238 C21.3809524,29.0825238 21.6031905,29.305381 21.8768095,29.305381 C22.1498095,29.305381 22.3726667,29.0825238 22.3726667,28.8095238 L22.3726667,27.8178095 C22.3726667,27.5448095 22.1498095,27.3250476 21.8768095,27.3250476" id="Fill-3" fill="#FFFFFF"></path>
                        <path d="M21.9325238,13.4565238 L21.8743333,13.4565238 C20.8269048,13.4565238 19.8407619,13.8607619 19.0935714,14.5980476 C18.334,15.3477143 17.9130476,16.3511905 17.9130476,17.4202857 C17.9130476,17.6932857 18.1359048,17.9130476 18.4089048,17.9130476 C18.6825238,17.9130476 18.9047619,17.6932857 18.9047619,17.4202857 C18.9047619,16.617381 19.2192381,15.8652381 19.79,15.304381 C20.3607619,14.7404286 21.1197143,14.4290476 21.9176667,14.4482381 C23.4844762,14.4699048 24.8240952,15.812 24.846381,17.3763333 C24.860619,18.4089048 24.353,19.3591429 23.4844762,19.9181429 C22.1671429,20.7668571 21.3809524,22.2686667 21.3809524,23.9345238 L21.3809524,25.341619 C21.3809524,25.6177143 21.6031905,25.8374762 21.8768095,25.8374762 C22.1498095,25.8374762 22.3726667,25.6177143 22.3726667,25.341619 L22.3726667,23.9345238 C22.3726667,22.6264762 23.0034762,21.4075714 24.0218095,20.7495238 C25.1775714,20.0048095 25.8566667,18.737619 25.8374762,17.3620952 C25.808381,15.2387619 24.0552381,13.4880952 21.9325238,13.4565238" id="Fill-5" fill="#FFFFFF"></path>
                    </g>
                </g>
            </g>
        </g>
    </g>
</svg>